HIERARCHY
ROOT Hips
{
  OFFSET -60.3739 94.0169 -81.0824
  CHANNELS 6 Xposition Yposition Zposition Zrotation Xrotation Yrotation
  JOINT RightUpLeg
  {
    OFFSET -8.9458 -8.66707 0.101652
    CHANNELS 3 Zrotation Xrotation Yrotation
    JOINT RightLeg
    {
      OFFSET 0 -44.4227 1.3727
      CHANNELS 3 Zrotation Xrotation Yrotation
      JOINT RightFoot
      {
        OFFSET 0.253549 -42.0924 -1.46059
        CHANNELS 3 Zrotation Xrotation Yrotation
        JOINT RightToes
        {
          OFFSET 0.04 -4.41509 8.4991
          CHANNELS 3 Zrotation Xrotation Yrotation
          End Site
          {
            OFFSET -0.08 -0.137448 9.77979
          }
        }
      }
    }
  }
  JOINT Spine
  {
    OFFSET 0 11.8905 0
    CHANNELS 3 Zrotation Xrotation Yrotation
    JOINT Spine1
    {
      OFFSET 0 25.6574 0.127663
      CHANNELS 3 Zrotation Xrotation Yrotation
      JOINT HEad
      {
        OFFSET 0 8.73416 0.011341
        CHANNELS 3 Zrotation Xrotation Yrotation
        End Site
        {
          OFFSET -0.29 12.7742 2.51395
        }
      }
      JOINT LeftShoulder1
      {
        OFFSET 8.99 -0.362252 -0.22
        CHANNELS 3 Zrotation Xrotation Yrotation
        JOINT LeftArm
        {
          OFFSET 10.2827 -0.00338 0.322123
          CHANNELS 3 Zrotation Xrotation Yrotation
          JOINT LeftForeArm
          {
            OFFSET 32.7669 0.099144 -1.42434
            CHANNELS 3 Zrotation Xrotation Yrotation
            JOINT LeftHand
            {
              OFFSET 27.5643 0.085362 1.02216
              CHANNELS 3 Zrotation Xrotation Yrotation
              End Site
              {
                OFFSET 16.7443 -0.6 1.50291
              }
            }
          }
        }
      }
      JOINT RightShoulder
      {
        OFFSET -8.99 -0.362252 -0.22
        CHANNELS 3 Zrotation Xrotation Yrotation
        JOINT RightArm
        {
          OFFSET -10.2827 -0.00338 0.322123
          CHANNELS 3 Zrotation Xrotation Yrotation
          JOINT RightForeArm
          {
            OFFSET -32.8971 0.099144 -1.42434
            CHANNELS 3 Zrotation Xrotation Yrotation
            JOINT RightHand
            {
              OFFSET -27.4921 0.085362 1.02216
              CHANNELS 3 Zrotation Xrotation Yrotation
              End Site
              {
                OFFSET -16.6312 -0.6 1.50291
              }
            }
          }
        }
      }
    }
  }
  JOINT LeftUpLeg
  {
    OFFSET 8.9458 -8.66707 0.101652
    CHANNELS 3 Zrotation Xrotation Yrotation
    JOINT LeftLeg
    {
      OFFSET 0 -44.4227 1.3727
      CHANNELS 3 Zrotation Xrotation Yrotation
      JOINT LeftFoot
      {
        OFFSET -0.253549 -42.0924 -1.46059
        CHANNELS 3 Zrotation Xrotation Yrotation
        JOINT LeftToes
        {
          OFFSET -0.04 -4.41509 8.4991
          CHANNELS 3 Zrotation Xrotation Yrotation
          End Site
          {
            OFFSET 0.08 -0.047448 9.77979
          }
        }
      }
    }
  }
}
MOTION
Frames:	10
Frame Time:	0.0166667
-59.5728 89.2657 -68.4839 5.23157 -3.19729 52.4049 -28.0907 -29.3722 2.64433 10.4629 44.7652 -4.34781 -1.89041 14.635 1.26156 0.0462048 0.000533403 0.662642 0.974554 7.70529 -1.42874 -3.72094 15.0711 -1.8319 13.8926 3.59858 -17.4533 -2.64834e-031 2.38542e-015 6.36111e-015 -100.145 -1.26629 -74.15 -41.6083 51.2566 -45.1641 7.64437 24.3554 -2.93696 25.8637 -4.41691 -18.2041 81.4342 -77.1273 52.6325 170.42 -64.8295 25.0059 55.0433 10.0887 9.4591 27.965 -9.08509 -14.6221 -20.0761 40.2795 28.8762 -3.69544 20.6153 2.81023 -1.29044e-009 1.55943e-007 -4.85964e-009 
-59.4187 89.1169 -69.9102 5.15774 -3.23022 53.9551 -28.3366 -28.9274 4.13905 10.6619 44.1426 -6.45344 -1.54041 14.8499 1.1484 0.0462048 0.000533403 0.662642 1.10584 7.7708 -1.07109 -3.91976 15.183 -1.08408 14.5291 3.95316 -19.3413 7.95139e-016 -3.18055e-015 -3.18055e-015 -99.9334 -1.27328 -74.9859 -43.1181 52.5459 -45.985 7.61358 24.0452 -2.8924 26.2067 -4.76591 -19.2426 82.4491 -78.8252 54.3195 171.741 -65.0264 28.6963 55.3824 12.5268 11.6888 28.2198 -9.04451 -14.3052 -19.0202 38.5669 25.8597 -5.02876 20.8664 3.05449 -1.29044e-009 1.55943e-007 -4.85965e-009 
-59.2259 89.0983 -71.4744 4.97562 -3.32244 54.6123 -28.1902 -28.9024 5.6191 10.3277 43.3778 -7.91057 -1.1506 14.9873 1.03481 0.0462048 0.000533403 0.662642 1.21777 7.814 -0.955259 -3.93376 15.2517 -0.835123 14.5595 4.51764 -19.748 -7.95139e-016 1.59028e-015 -0 -100.165 -2.1561 -75.7314 -44.6769 53.6972 -46.6407 7.5819 23.7209 -2.84613 26.1794 -4.81636 -19.4354 83.7548 -78.132 56.1512 173.39 -64.8704 32.7266 55.9494 14.8544 13.2149 28.3135 -8.69468 -13.813 -18.554 37.1104 23.5989 -5.81108 20.6292 3.12999 -1.29045e-009 1.55943e-007 -4.85965e-009 
-59.0212 89.238 -73.0967 4.71285 -3.47627 54.4874 -27.7859 -29.1944 6.93602 9.82521 42.4715 -8.95236 -0.787358 14.8799 0.921805 0.0462048 0.000533403 0.662642 1.30381 7.84462 -1.06217 -3.78932 15.3014 -1.04482 14.1451 5.15105 -18.8499 0 3.18055e-015 -0 -100.634 -3.88214 -76.0202 -46.1007 54.6807 -47.4503 7.54988 23.3859 -2.79868 25.8104 -4.56619 -18.7649 85.4753 -75.7534 58.0396 174.941 -64.5655 36.2924 56.8393 17.1269 14.2891 28.3548 -8.24763 -13.1519 -18.6875 36.0751 22.2838 -6.05718 20.0149 3.04264 -1.29045e-009 1.55943e-007 -4.85965e-009 
-58.8294 89.5321 -74.6948 4.41204 -3.69345 53.8111 -27.2662 -29.6467 7.92342 9.47118 41.521 -9.69998 -0.397463 14.2317 0.790739 0.0462048 0.000533403 0.662642 1.37895 7.87359 -1.32087 -3.54438 15.3542 -1.56547 13.5251 5.71255 -17.0676 1.59028e-015 7.95139e-016 -9.54166e-015 -101.086 -6.17376 -75.6393 -47.2589 55.4653 -48.5668 7.51779 23.0439 -2.75057 25.2185 -4.11918 -17.4839 87.0578 -72.357 59.333 175.609 -64.0444 38.3713 57.7791 19.4352 15.5064 28.4329 -7.90289 -12.3604 -19.3129 35.5259 21.8069 -5.97131 19.3216 2.86995 -1.29045e-009 1.55943e-007 -4.85965e-009 
-58.6661 89.95 -76.1924 4.11116 -3.96802 52.8517 -26.7428 -30.0991 8.43268 9.41262 40.6811 -10.1156 0.192777 12.7768 0.615917 0.0462048 0.000533403 0.662642 1.45997 7.90989 -1.63442 -3.26858 15.4247 -2.19542 12.9375 6.11748 -14.9342 7.95139e-016 2.38542e-015 -0 -101.265 -8.60529 -74.4919 -48.0389 56.0275 -50.0696 7.486 22.6983 -2.7023 24.5698 -3.62533 -15.9982 88.0291 -68.448 59.57 174.675 -63.0731 38.2059 58.2886 21.8909 17.5282 28.5967 -7.79969 -11.5342 -20.2533 35.4421 21.8841 -5.82763 18.8869 2.70718 -1.29044e-009 1.55943e-007 -4.85965e-009 
-58.5335 90.4405 -77.5253 3.82994 -4.2769 51.8307 -26.2776 -30.4314 8.39549 9.60678 40.0685 -10.0998 1.17127 10.5015 0.397383 0.0462048 0.000533403 0.662642 1.54859 7.95556 -1.916 -3.01701 15.5141 -2.75493 12.525 6.3466 -12.9209 8.82781e-032 -7.95139e-016 6.36111e-015 -100.984 -10.7722 -72.5845 -48.3591 56.3776 -52.0113 7.45483 22.3526 -2.65438 24.0009 -3.20392 -14.6779 88.2044 -64.334 58.6539 171.992 -61.3087 35.7842 57.828 24.5429 20.852 28.8383 -7.99982 -10.7937 -21.2937 35.7527 22.1847 -5.86513 18.9751 2.6283 -1.29045e-009 1.55943e-007 -4.85965e-009 
-58.4225 90.9403 -78.6499 3.57323 -4.57647 50.878 -25.8776 -30.5936 7.87719 9.88812 39.6957 -9.65181 2.58673 7.76141 0.178108 0.0462048 0.000533403 0.662642 1.62808 8.0025 -2.11405 -2.8178 15.6073 -3.13932 12.2964 6.41922 -11.3132 -7.95139e-016 -6.36111e-015 -0 -100.191 -12.4179 -70.0298 -48.2138 56.574 -54.4025 7.4246 22.0105 -2.60727 23.5729 -2.9087 -13.7306 87.6444 -60.1614 56.774 168.169 -58.4203 31.9485 55.8909 27.2685 25.7108 29.0912 -8.48486 -10.2311 -22.2052 36.3519 22.4159 -6.2384 19.7269 2.67843 -1.29045e-009 1.55943e-007 -4.85965e-009 
-58.3198 91.3908 -79.5514 3.34335 -4.81457 50.0319 -25.5015 -30.6233 7.08461 10.0772 39.4996 -8.9647 4.28203 5.15606 0.00754582 0.0462048 0.000533403 0.662642 1.67798 8.03714 -2.21639 -2.6791 15.6788 -3.32703 12.1667 6.36203 -10.1842 -3.18055e-015 3.18055e-015 -6.36111e-015 -98.9713 -13.4648 -67.0319 -47.6872 56.7125 -57.1935 7.39556 21.6754 -2.56144 23.2851 -2.74025 -13.1941 86.5881 -56.0035 54.3105 164.15 -54.2953 27.8889 52.1081 29.7368 32.0714 29.251 -9.15661 -9.8872 -22.7786 37.0968 22.3658 -7.00475 21.1383 2.87919 -1.29045e-009 1.55943e-007 -4.85965e-009 
-58.2139 91.7526 -80.2466 3.14845 -4.95402 49.2701 -25.086 -30.6327 6.31075 10.0707 39.4209 -8.3689 5.96721 3.25681 -0.109221 0.0462048 0.000533403 0.662642 1.69174 8.05036 -2.24017 -2.60323 15.7083 -3.35649 12.0369 6.19485 -9.44332 1.59028e-015 -1.59028e-015 -1.27222e-014 -97.4984 -13.9769 -63.8508 -46.9148 56.8958 -60.2939 7.36789 21.3509 -2.51735 23.1173 -2.67325 -12.9993 85.3422 -51.9608 51.6989 160.605 -49.1677 24.4624 46.4375 31.491 39.5991 29.2186 -9.85071 -9.75963 -22.8752 37.8179 21.9368 -8.11135 23.0337 3.22348 -1.29045e-009 1.55943e-007 -4.85965e-009 
